# This file uses centimeters as units for non-parametric coordinates.

mtllib cubeRotated.mtl
g default
v -0.426918 -0.082463 0.483795
v -0.640785 -0.057388 -0.096008
v 0.426918 0.082463 -0.483795
v 0.640785 0.057388 0.096008
v -0.543559 1.064942 0.576442
v 0.524144 1.204793 0.188655
v 0.310277 1.229868 -0.391147
v -0.757426 1.090017 -0.003360
vt 1.000000 0.000000
vt 1.000000 1.000000
vt 0.000000 1.000000
vt 0.000000 0.000000
vt 0.000000 0.000000
vt 1.000000 0.000000
vt 1.000000 1.000000
vt 0.000000 1.000000
vt 0.000000 0.000000
vt 1.000000 0.000000
vt 1.000000 1.000000
vt 0.000000 1.000000
vt 1.000000 0.000000
vt 0.000000 1.000000
vt 0.000000 0.000000
vt 1.000000 0.000000
vt 1.000000 1.000000
vt 0.000000 1.000000
vt 0.000000 0.000000
vt 1.000000 1.000000
vn 0.100811 -0.991678 -0.080073
vn 0.100811 -0.991678 -0.080073
vn 0.100811 -0.991678 -0.080073
vn 0.100811 -0.991678 -0.080073
vn 0.100811 -0.991678 -0.080073
vn 0.100811 -0.991678 -0.080073
vn -0.100811 0.991678 0.080073
vn -0.100811 0.991678 0.080073
vn -0.100811 0.991678 0.080073
vn -0.100811 0.991678 0.080073
vn -0.100811 0.991678 0.080073
vn -0.100811 0.991678 0.080073
vn 0.345785 -0.040542 0.937437
vn 0.345785 -0.040542 0.937437
vn 0.345785 -0.040542 0.937437
vn 0.345785 -0.040542 0.937437
vn 0.345785 -0.040542 0.937437
vn 0.345785 -0.040542 0.937437
vn 0.932882 0.122192 -0.338820
vn 0.932882 0.122192 -0.338820
vn 0.932882 0.122192 -0.338820
vn 0.932882 0.122192 -0.338820
vn 0.932882 0.122192 -0.338820
vn 0.932882 0.122192 -0.338820
vn -0.345785 0.040542 -0.937437
vn -0.345785 0.040542 -0.937437
vn -0.345785 0.040542 -0.937437
vn -0.345785 0.040542 -0.937437
vn -0.345785 0.040542 -0.937437
vn -0.345785 0.040542 -0.937437
vn -0.932882 -0.122192 0.338820
vn -0.932882 -0.122192 0.338820
vn -0.932882 -0.122192 0.338820
vn -0.932882 -0.122192 0.338820
vn -0.932882 -0.122192 0.338820
vn -0.932882 -0.122192 0.338820
s off
g Box001
usemtl initialShadingGroup
f 1/1/1 2/2/2 3/3/3
f 3/3/4 4/4/5 1/1/6
f 5/5/7 6/6/8 7/7/9
f 7/7/10 8/8/11 5/5/12
f 1/9/13 4/10/14 6/11/15
f 6/11/16 5/12/17 1/9/18
f 4/4/19 3/13/20 7/7/21
f 7/7/22 6/14/23 4/4/24
f 3/15/25 2/16/26 8/17/27
f 8/17/28 7/18/29 3/15/30
f 2/19/31 1/1/32 5/20/33
f 5/20/34 8/8/35 2/19/36
